# xmcd
#
# Track frame offsets: 
#        150
#        21134
#        39749
#        56668
#        76342
#        92036
#        113288
#        130686
#        143024
#        158729
#        181793
#        194667
#        208787
#        224475
#
# Disc length: 3182 seconds
#
# Revision: 0
# Processed by: cddbd v1.5.2PL0 Copyright (c) Steve Scherf et al.
# Submitted via: ExactAudioCopy v0.99pb5
#
DISCID=bd0c6c0e
DTITLE=Various Artist - Southern Filibuster:  A Tribute to Tut Taylor
DYEAR=2010
DGENRE=Bluegrass
TTITLE0=Jerry Douglas - Southern Filibuster
TTITLE1=Billy Cardine - Swampwater
TTITLE2=Michael Witcher - Dobro Country
TTITLE3=Orville Johnson - Ghost Picker
TTITLE4=Curtis Burch - Black Ridge Ramble
TTITLE5=Rob Ickes  - Oasis
TTITLE6=Cindy Cashdollar - Little Green Pill
TTITLE7=Mike Auldridge - This Ain't Grass
TTITLE8=Ferrell Stowe - Me and My Dobro
TTITLE9=Randy Kohrs - Oozin' the Blues
TTITLE10=Phil Leadbetter - Acoustic Toothpick
TTITLE11=Andy Hall - Resophonic Guitar
TTITLE12=Megan Lovell - Reso Fandango
TTITLE13=Ivan Rosenberg - Stevens Steel
EXTD=
EXTT0=
EXTT1=
EXTT2=
EXTT3=
EXTT4=
EXTT5=
EXTT6=
EXTT7=
EXTT8=
EXTT9=
EXTT10=
EXTT11=
EXTT12=
EXTT13=
PLAYORDER=
